# MagicaVoxel @ Ephtracy

# group
o 

# material
mtllib ModeloCartas-2.mtl
usemtl palette

# normals
vn -1 0 0
vn 1 0 0
vn 0 0 1
vn 0 0 -1
vn 0 -1 0
vn 0 1 0

# texcoords
vt 0.908203 0.5
vt 0.912109 0.5
vt 0.939453 0.5
vt 0.943359 0.5
vt 0.951172 0.5
vt 0.970703 0.5
vt 0.974609 0.5

# verts
v -0.8 0.3 0.1
v -0.8 0.3 0
v -0.8 0.3 -0.1
v -0.8 0.7 0
v -0.8 0.7 -0.1
v -0.8 1.1 0
v -0.8 1.1 -0.1
v -0.8 1.8 0
v -0.8 1.8 -0.1
v -0.8 2.2 0
v -0.8 2.2 -0.1
v -0.8 2.7 0.1
v -0.8 2.7 0
v -0.8 2.7 -0.1
v -0.6 1.2 -0.1
v -0.6 1.2 -0.2
v -0.6 1.2 -0.3
v -0.6 2.2 -0.1
v -0.6 2.2 -0.2
v -0.6 2.2 -0.3
v -0.4 0.9 -0.1
v -0.4 0.9 -0.2
v -0.4 0.9 -0.3
v -0.4 1 -0.1
v -0.4 1 -0.2
v -0.4 1 -0.3
v -0.3 1 -0.1
v -0.3 1 -0.2
v -0.3 1 -0.3
v -0.3 1.2 -0.1
v -0.3 1.2 -0.2
v -0.3 1.2 -0.3
v 0.2 1 -0.1
v 0.2 1 -0.2
v 0.2 1 -0.3
v 0.2 1.2 -0.1
v 0.2 1.2 -0.2
v 0.2 1.2 -0.3
v 0.2 1.5 0
v 0.2 1.5 -0.1
v 0.2 1.6 0
v 0.2 1.6 -0.1
v 0.5 1.3 -0.1
v 0.5 1.3 -0.2
v 0.5 1.3 -0.3
v 0.5 1.5 -0.1
v 0.5 1.5 -0.2
v 0.5 1.5 -0.3
v 0.5 1.6 -0.1
v 0.5 1.6 -0.2
v 0.5 1.6 -0.3
v 0.5 2.1 -0.1
v 0.5 2.1 -0.2
v 0.5 2.1 -0.3
v -0.5 1.3 -0.1
v -0.5 1.3 -0.2
v -0.5 1.3 -0.3
v -0.5 1.5 -0.1
v -0.5 1.5 -0.2
v -0.5 1.5 -0.3
v -0.5 1.6 -0.1
v -0.5 1.6 -0.2
v -0.5 1.6 -0.3
v -0.5 2.1 -0.1
v -0.5 2.1 -0.2
v -0.5 2.1 -0.3
v -0.2 1 -0.1
v -0.2 1 -0.2
v -0.2 1 -0.3
v -0.2 1.2 -0.1
v -0.2 1.2 -0.2
v -0.2 1.2 -0.3
v -0.1 1.5 0
v -0.1 1.5 -0.1
v -0.1 1.6 0
v -0.1 1.6 -0.1
v 0.3 1 -0.1
v 0.3 1 -0.2
v 0.3 1 -0.3
v 0.3 1.2 -0.1
v 0.3 1.2 -0.2
v 0.3 1.2 -0.3
v 0.4 0.9 -0.1
v 0.4 0.9 -0.2
v 0.4 0.9 -0.3
v 0.4 1 -0.1
v 0.4 1 -0.2
v 0.4 1 -0.3
v 0.6 1.2 -0.1
v 0.6 1.2 -0.2
v 0.6 1.2 -0.3
v 0.6 2.2 -0.1
v 0.6 2.2 -0.2
v 0.6 2.2 -0.3
v 0.8 0.3 0.1
v 0.8 0.3 0
v 0.8 0.3 -0.1
v 0.8 0.7 0
v 0.8 0.7 -0.1
v 0.8 1.1 0
v 0.8 1.1 -0.1
v 0.8 1.8 0
v 0.8 1.8 -0.1
v 0.8 2.2 0
v 0.8 2.2 -0.1
v 0.8 2.7 0.1
v 0.8 2.7 0
v 0.8 2.7 -0.1
v -0.8 0.3 0.1
v -0.8 2.7 0.1
v -0.6 0.5 0.1
v -0.6 0.6 0.1
v -0.6 1.1 0.1
v -0.6 1.3 0.1
v -0.6 1.8 0.1
v -0.6 1.9 0.1
v -0.6 2.5 0.1
v -0.5 0.5 0.1
v -0.5 0.6 0.1
v -0.5 0.7 0.1
v -0.5 0.8 0.1
v -0.5 1.8 0.1
v -0.5 1.9 0.1
v -0.5 2 0.1
v -0.5 2.1 0.1
v -0.5 2.3 0.1
v -0.5 2.5 0.1
v -0.4 0.7 0.1
v -0.4 0.8 0.1
v -0.4 1.1 0.1
v -0.4 1.3 0.1
v -0.4 1.5 0.1
v -0.4 1.7 0.1
v -0.4 2 0.1
v -0.4 2.1 0.1
v -0.3 0.8 0.1
v -0.3 0.9 0.1
v -0.3 1 0.1
v -0.3 1.1 0.1
v -0.3 1.3 0.1
v -0.3 1.4 0.1
v -0.3 1.8 0.1
v -0.3 1.9 0.1
v -0.3 2.1 0.1
v -0.3 2.2 0.1
v -0.3 2.3 0.1
v -0.3 2.5 0.1
v -0.2 0.5 0.1
v -0.2 0.6 0.1
v -0.2 0.8 0.1
v -0.2 0.9 0.1
v -0.2 1 0.1
v -0.2 1.1 0.1
v -0.2 1.3 0.1
v -0.2 1.4 0.1
v -0.2 1.5 0.1
v -0.2 1.7 0.1
v -0.2 1.8 0.1
v -0.2 1.9 0.1
v -0.2 2.1 0.1
v -0.2 2.2 0.1
v -0.1 0.5 0.1
v -0.1 0.6 0.1
v -0.1 0.7 0.1
v -0.1 0.9 0.1
v -0.1 1 0.1
v -0.1 1.1 0.1
v -0.1 1.6 0.1
v -0.1 1.7 0.1
v 0 1 0.1
v 0 1.1 0.1
v 0 1.2 0.1
v 0 1.4 0.1
v 0 1.6 0.1
v 0 1.7 0.1
v 0 1.9 0.1
v 0 2.1 0.1
v 0 2.3 0.1
v 0 2.4 0.1
v 0.1 0.7 0.1
v 0.1 0.9 0.1
v 0.1 1.6 0.1
v 0.1 1.8 0.1
v 0.1 2.3 0.1
v 0.1 2.4 0.1
v 0.2 0.6 0.1
v 0.2 0.7 0.1
v 0.2 0.8 0.1
v 0.2 0.9 0.1
v 0.2 1 0.1
v 0.2 1.1 0.1
v 0.2 1.2 0.1
v 0.2 1.4 0.1
v 0.2 1.9 0.1
v 0.2 2.1 0.1
v 0.2 2.2 0.1
v 0.3 0.6 0.1
v 0.3 0.7 0.1
v 0.3 0.8 0.1
v 0.3 0.9 0.1
v 0.3 1 0.1
v 0.3 1.1 0.1
v 0.3 1.2 0.1
v 0.3 1.3 0.1
v 0.3 1.6 0.1
v 0.3 1.8 0.1
v 0.3 2.1 0.1
v 0.3 2.2 0.1
v 0.3 2.3 0.1
v 0.3 2.5 0.1
v 0.4 0.5 0.1
v 0.4 0.7 0.1
v 0.4 1 0.1
v 0.4 1.1 0.1
v 0.4 1.2 0.1
v 0.4 1.3 0.1
v 0.4 1.5 0.1
v 0.4 1.6 0.1
v 0.4 1.8 0.1
v 0.4 2 0.1
v 0.4 2.1 0.1
v 0.4 2.2 0.1
v 0.5 0.8 0.1
v 0.5 0.9 0.1
v 0.5 1 0.1
v 0.5 1.1 0.1
v 0.5 1.5 0.1
v 0.5 1.6 0.1
v 0.5 2.1 0.1
v 0.5 2.2 0.1
v 0.5 2.3 0.1
v 0.5 2.5 0.1
v 0.6 0.5 0.1
v 0.6 0.7 0.1
v 0.6 0.8 0.1
v 0.6 0.9 0.1
v 0.6 1.8 0.1
v 0.6 2 0.1
v 0.6 2.5 0.1
v 0.8 0.3 0.1
v 0.8 2.7 0.1
v -0.1 1.5 -0.1
v -0.1 1.6 -0.1
v 0.2 1.5 -0.1
v 0.2 1.6 -0.1
v -0.1 1.5 0
v -0.1 1.6 0
v 0.2 1.5 0
v 0.2 1.6 0
v -0.8 0.3 -0.1
v -0.8 0.7 -0.1
v -0.8 1.1 -0.1
v -0.8 1.8 -0.1
v -0.8 2.2 -0.1
v -0.8 2.7 -0.1
v -0.7 0.4 -0.1
v -0.7 0.7 -0.1
v -0.7 1.1 -0.1
v -0.7 1.8 -0.1
v -0.7 2.2 -0.1
v -0.7 2.6 -0.1
v -0.6 1.2 -0.1
v -0.6 2.2 -0.1
v -0.5 1.3 -0.1
v -0.5 1.5 -0.1
v -0.5 1.6 -0.1
v -0.5 2.1 -0.1
v -0.4 0.3 -0.1
v -0.4 0.4 -0.1
v -0.4 0.9 -0.1
v -0.4 1 -0.1
v -0.3 1 -0.1
v -0.3 1.2 -0.1
v -0.3 2.6 -0.1
v -0.3 2.7 -0.1
v -0.2 1 -0.1
v -0.2 1.2 -0.1
v 0.2 1 -0.1
v 0.2 1.2 -0.1
v 0.3 1 -0.1
v 0.3 1.2 -0.1
v 0.3 2.6 -0.1
v 0.3 2.7 -0.1
v 0.4 0.3 -0.1
v 0.4 0.4 -0.1
v 0.4 0.9 -0.1
v 0.4 1 -0.1
v 0.5 1.3 -0.1
v 0.5 1.5 -0.1
v 0.5 1.6 -0.1
v 0.5 2.1 -0.1
v 0.6 1.2 -0.1
v 0.6 2.2 -0.1
v 0.7 0.4 -0.1
v 0.7 0.7 -0.1
v 0.7 1.1 -0.1
v 0.7 1.8 -0.1
v 0.7 2.2 -0.1
v 0.7 2.6 -0.1
v 0.8 0.3 -0.1
v 0.8 0.7 -0.1
v 0.8 1.1 -0.1
v 0.8 1.8 -0.1
v 0.8 2.2 -0.1
v 0.8 2.7 -0.1
v -0.6 1.2 -0.3
v -0.6 2.2 -0.3
v -0.5 1.3 -0.3
v -0.5 1.5 -0.3
v -0.5 1.6 -0.3
v -0.5 2.1 -0.3
v -0.4 0.9 -0.3
v -0.4 1 -0.3
v -0.3 1 -0.3
v -0.3 1.2 -0.3
v -0.2 1 -0.3
v -0.2 1.2 -0.3
v 0.2 1 -0.3
v 0.2 1.2 -0.3
v 0.3 1 -0.3
v 0.3 1.2 -0.3
v 0.4 0.9 -0.3
v 0.4 1 -0.3
v 0.5 1.3 -0.3
v 0.5 1.5 -0.3
v 0.5 1.6 -0.3
v 0.5 2.1 -0.3
v 0.6 1.2 -0.3
v 0.6 2.2 -0.3
v -0.8 0.3 0.1
v 0.8 0.3 0.1
v -0.8 0.3 0
v -0.4 0.3 0
v 0.4 0.3 0
v 0.8 0.3 0
v -0.8 0.3 -0.1
v -0.4 0.3 -0.1
v 0.4 0.3 -0.1
v 0.8 0.3 -0.1
v -0.4 0.9 -0.1
v 0.4 0.9 -0.1
v -0.4 0.9 -0.2
v 0.4 0.9 -0.2
v -0.4 0.9 -0.3
v 0.4 0.9 -0.3
v -0.6 1.2 -0.1
v -0.3 1.2 -0.1
v -0.2 1.2 -0.1
v 0.2 1.2 -0.1
v 0.3 1.2 -0.1
v 0.6 1.2 -0.1
v -0.6 1.2 -0.2
v -0.3 1.2 -0.2
v -0.2 1.2 -0.2
v 0.2 1.2 -0.2
v 0.3 1.2 -0.2
v 0.6 1.2 -0.2
v -0.6 1.2 -0.3
v -0.3 1.2 -0.3
v -0.2 1.2 -0.3
v 0.2 1.2 -0.3
v 0.3 1.2 -0.3
v 0.6 1.2 -0.3
v -0.5 1.5 -0.1
v 0.5 1.5 -0.1
v -0.5 1.5 -0.2
v 0.5 1.5 -0.2
v -0.5 1.5 -0.3
v 0.5 1.5 -0.3
v -0.1 1.6 0
v 0.2 1.6 0
v -0.1 1.6 -0.1
v 0.2 1.6 -0.1
v -0.5 2.1 -0.1
v 0.5 2.1 -0.1
v -0.5 2.1 -0.2
v 0.5 2.1 -0.2
v -0.5 2.1 -0.3
v 0.5 2.1 -0.3
v -0.4 1 -0.1
v -0.3 1 -0.1
v -0.2 1 -0.1
v 0.2 1 -0.1
v 0.3 1 -0.1
v 0.4 1 -0.1
v -0.4 1 -0.2
v -0.3 1 -0.2
v -0.2 1 -0.2
v 0.2 1 -0.2
v 0.3 1 -0.2
v 0.4 1 -0.2
v -0.4 1 -0.3
v -0.3 1 -0.3
v -0.2 1 -0.3
v 0.2 1 -0.3
v 0.3 1 -0.3
v 0.4 1 -0.3
v -0.5 1.3 -0.1
v 0.5 1.3 -0.1
v -0.5 1.3 -0.2
v 0.5 1.3 -0.2
v -0.5 1.3 -0.3
v 0.5 1.3 -0.3
v -0.1 1.5 0
v 0.2 1.5 0
v -0.1 1.5 -0.1
v 0.2 1.5 -0.1
v -0.5 1.6 -0.1
v 0.5 1.6 -0.1
v -0.5 1.6 -0.2
v 0.5 1.6 -0.2
v -0.5 1.6 -0.3
v 0.5 1.6 -0.3
v -0.6 2.2 -0.1
v 0.6 2.2 -0.1
v -0.6 2.2 -0.2
v 0.6 2.2 -0.2
v -0.6 2.2 -0.3
v 0.6 2.2 -0.3
v -0.8 2.7 0.1
v 0.8 2.7 0.1
v -0.8 2.7 0
v -0.3 2.7 0
v 0.3 2.7 0
v 0.8 2.7 0
v -0.8 2.7 -0.1
v -0.3 2.7 -0.1
v 0.3 2.7 -0.1
v 0.8 2.7 -0.1

# faces
f 4/6/1 2/6/1 1/6/1
f 4/4/1 3/4/1 2/4/1
f 5/4/1 3/4/1 4/4/1
f 6/6/1 4/6/1 1/6/1
f 6/2/1 5/2/1 4/2/1
f 7/2/1 5/2/1 6/2/1
f 8/6/1 6/6/1 1/6/1
f 8/4/1 7/4/1 6/4/1
f 9/4/1 7/4/1 8/4/1
f 10/6/1 8/6/1 1/6/1
f 10/2/1 9/2/1 8/2/1
f 11/2/1 9/2/1 10/2/1
f 12/6/1 10/6/1 1/6/1
f 13/4/1 11/4/1 10/4/1
f 13/6/1 10/6/1 12/6/1
f 14/4/1 11/4/1 13/4/1
f 18/1/1 16/1/1 15/1/1
f 19/6/1 17/6/1 16/6/1
f 19/1/1 16/1/1 18/1/1
f 20/6/1 17/6/1 19/6/1
f 24/1/1 22/1/1 21/1/1
f 25/6/1 23/6/1 22/6/1
f 25/1/1 22/1/1 24/1/1
f 26/6/1 23/6/1 25/6/1
f 30/1/1 28/1/1 27/1/1
f 31/6/1 29/6/1 28/6/1
f 31/1/1 28/1/1 30/1/1
f 32/6/1 29/6/1 31/6/1
f 36/1/1 34/1/1 33/1/1
f 37/6/1 35/6/1 34/6/1
f 37/1/1 34/1/1 36/1/1
f 38/6/1 35/6/1 37/6/1
f 41/7/1 40/7/1 39/7/1
f 42/7/1 40/7/1 41/7/1
f 46/1/1 44/1/1 43/1/1
f 47/6/1 45/6/1 44/6/1
f 47/1/1 44/1/1 46/1/1
f 48/6/1 45/6/1 47/6/1
f 52/1/1 50/1/1 49/1/1
f 53/6/1 51/6/1 50/6/1
f 53/1/1 50/1/1 52/1/1
f 54/6/1 51/6/1 53/6/1
f 55/1/2 56/1/2 58/1/2
f 56/6/2 57/6/2 59/6/2
f 58/1/2 56/1/2 59/1/2
f 59/6/2 57/6/2 60/6/2
f 61/1/2 62/1/2 64/1/2
f 62/6/2 63/6/2 65/6/2
f 64/1/2 62/1/2 65/1/2
f 65/6/2 63/6/2 66/6/2
f 67/1/2 68/1/2 70/1/2
f 68/6/2 69/6/2 71/6/2
f 70/1/2 68/1/2 71/1/2
f 71/6/2 69/6/2 72/6/2
f 73/7/2 74/7/2 75/7/2
f 75/7/2 74/7/2 76/7/2
f 77/1/2 78/1/2 80/1/2
f 78/6/2 79/6/2 81/6/2
f 80/1/2 78/1/2 81/1/2
f 81/6/2 79/6/2 82/6/2
f 83/1/2 84/1/2 86/1/2
f 84/6/2 85/6/2 87/6/2
f 86/1/2 84/1/2 87/1/2
f 87/6/2 85/6/2 88/6/2
f 89/1/2 90/1/2 92/1/2
f 90/6/2 91/6/2 93/6/2
f 92/1/2 90/1/2 93/1/2
f 93/6/2 91/6/2 94/6/2
f 95/6/2 96/6/2 98/6/2
f 96/4/2 97/4/2 98/4/2
f 98/4/2 97/4/2 99/4/2
f 95/6/2 98/6/2 100/6/2
f 98/2/2 99/2/2 100/2/2
f 100/2/2 99/2/2 101/2/2
f 95/6/2 100/6/2 102/6/2
f 100/4/2 101/4/2 102/4/2
f 102/4/2 101/4/2 103/4/2
f 95/6/2 102/6/2 104/6/2
f 102/2/2 103/2/2 104/2/2
f 104/2/2 103/2/2 105/2/2
f 95/6/2 104/6/2 106/6/2
f 104/4/2 105/4/2 107/4/2
f 106/6/2 104/6/2 107/6/2
f 107/4/2 105/4/2 108/4/2
f 111/6/3 110/6/3 109/6/3
f 112/6/3 110/6/3 111/6/3
f 113/6/3 110/6/3 112/6/3
f 114/6/3 110/6/3 113/6/3
f 115/6/3 110/6/3 114/6/3
f 116/6/3 110/6/3 115/6/3
f 117/6/3 110/6/3 116/6/3
f 118/6/3 111/6/3 109/6/3
f 118/4/3 112/4/3 111/4/3
f 119/3/3 113/3/3 112/3/3
f 119/4/3 112/4/3 118/4/3
f 120/3/3 113/3/3 119/3/3
f 121/3/3 113/3/3 120/3/3
f 122/3/3 115/3/3 114/3/3
f 122/4/3 116/4/3 115/4/3
f 123/3/3 117/3/3 116/3/3
f 123/4/3 116/4/3 122/4/3
f 124/3/3 117/3/3 123/3/3
f 125/3/3 117/3/3 124/3/3
f 126/3/3 117/3/3 125/3/3
f 127/6/3 110/6/3 117/6/3
f 127/3/3 117/3/3 126/3/3
f 128/4/3 121/4/3 120/4/3
f 128/3/3 119/3/3 118/3/3
f 128/3/3 120/3/3 119/3/3
f 129/3/3 113/3/3 121/3/3
f 129/4/3 121/4/3 128/4/3
f 130/4/3 114/4/3 113/4/3
f 130/3/3 113/3/3 129/3/3
f 131/3/3 122/3/3 114/3/3
f 131/4/3 114/4/3 130/4/3
f 131/3/3 123/3/3 122/3/3
f 131/3/3 124/3/3 123/3/3
f 132/3/3 124/3/3 131/3/3
f 133/3/3 124/3/3 132/3/3
f 134/4/3 125/4/3 124/4/3
f 134/3/3 124/3/3 133/3/3
f 135/3/3 126/3/3 125/3/3
f 135/4/3 125/4/3 134/4/3
f 136/3/3 130/3/3 129/3/3
f 136/3/3 129/3/3 128/3/3
f 136/3/3 131/3/3 130/3/3
f 136/3/3 132/3/3 131/3/3
f 137/3/3 132/3/3 136/3/3
f 138/3/3 132/3/3 137/3/3
f 139/3/3 132/3/3 138/3/3
f 140/3/3 132/3/3 139/3/3
f 141/3/3 132/3/3 140/3/3
f 142/3/3 134/3/3 133/3/3
f 142/3/3 135/3/3 134/3/3
f 143/3/3 135/3/3 142/3/3
f 144/3/3 126/3/3 135/3/3
f 144/3/3 135/3/3 143/3/3
f 145/3/3 126/3/3 144/3/3
f 146/4/3 127/4/3 126/4/3
f 146/3/3 126/3/3 145/3/3
f 147/6/3 110/6/3 127/6/3
f 147/4/3 127/4/3 146/4/3
f 148/6/3 118/6/3 109/6/3
f 148/3/3 128/3/3 118/3/3
f 148/3/3 136/3/3 128/3/3
f 149/3/3 136/3/3 148/3/3
f 150/4/3 137/4/3 136/4/3
f 150/3/3 136/3/3 149/3/3
f 151/3/3 138/3/3 137/3/3
f 151/4/3 137/4/3 150/4/3
f 152/4/3 139/4/3 138/4/3
f 152/3/3 138/3/3 151/3/3
f 153/3/3 140/3/3 139/3/3
f 153/4/3 139/4/3 152/4/3
f 154/4/3 141/4/3 140/4/3
f 154/3/3 140/3/3 153/3/3
f 155/3/3 132/3/3 141/3/3
f 155/4/3 141/4/3 154/4/3
f 156/4/3 133/4/3 132/4/3
f 156/3/3 132/3/3 155/3/3
f 157/3/3 142/3/3 133/3/3
f 157/4/3 133/4/3 156/4/3
f 158/4/3 143/4/3 142/4/3
f 158/3/3 142/3/3 157/3/3
f 159/3/3 144/3/3 143/3/3
f 159/4/3 143/4/3 158/4/3
f 160/4/3 145/4/3 144/4/3
f 160/3/3 144/3/3 159/3/3
f 161/3/3 147/3/3 146/3/3
f 161/4/3 145/4/3 160/4/3
f 161/3/3 146/3/3 145/3/3
f 162/6/3 148/6/3 109/6/3
f 162/4/3 149/4/3 148/4/3
f 163/3/3 154/3/3 153/3/3
f 163/4/3 149/4/3 162/4/3
f 163/3/3 157/3/3 156/3/3
f 163/3/3 156/3/3 155/3/3
f 163/3/3 152/3/3 151/3/3
f 163/3/3 151/3/3 150/3/3
f 163/3/3 150/3/3 149/3/3
f 163/3/3 161/3/3 160/3/3
f 163/3/3 158/3/3 157/3/3
f 163/3/3 155/3/3 154/3/3
f 163/3/3 159/3/3 158/3/3
f 163/3/3 153/3/3 152/3/3
f 163/3/3 160/3/3 159/3/3
f 164/3/3 161/3/3 163/3/3
f 165/3/3 161/3/3 164/3/3
f 166/3/3 161/3/3 165/3/3
f 167/3/3 161/3/3 166/3/3
f 168/3/3 161/3/3 167/3/3
f 169/3/3 161/3/3 168/3/3
f 170/3/3 166/3/3 165/3/3
f 170/4/3 167/4/3 166/4/3
f 171/3/3 168/3/3 167/3/3
f 171/4/3 167/4/3 170/4/3
f 172/3/3 168/3/3 171/3/3
f 173/3/3 168/3/3 172/3/3
f 174/4/3 169/4/3 168/4/3
f 174/3/3 168/3/3 173/3/3
f 175/3/3 161/3/3 169/3/3
f 175/4/3 169/4/3 174/4/3
f 176/3/3 161/3/3 175/3/3
f 177/3/3 161/3/3 176/3/3
f 178/3/3 147/3/3 161/3/3
f 178/3/3 161/3/3 177/3/3
f 179/3/3 147/3/3 178/3/3
f 180/3/3 163/3/3 162/3/3
f 180/3/3 164/3/3 163/3/3
f 180/4/3 165/4/3 164/4/3
f 181/3/3 170/3/3 165/3/3
f 181/4/3 165/4/3 180/4/3
f 181/3/3 171/3/3 170/3/3
f 181/3/3 172/3/3 171/3/3
f 182/3/3 174/3/3 173/3/3
f 182/3/3 176/3/3 175/3/3
f 182/3/3 175/3/3 174/3/3
f 183/3/3 176/3/3 182/3/3
f 184/4/3 179/4/3 178/4/3
f 184/3/3 178/3/3 177/3/3
f 185/3/3 147/3/3 179/3/3
f 185/4/3 179/4/3 184/4/3
f 186/3/3 180/3/3 162/3/3
f 186/3/3 181/3/3 180/3/3
f 187/3/3 181/3/3 186/3/3
f 188/3/3 181/3/3 187/3/3
f 189/3/3 172/3/3 181/3/3
f 189/3/3 181/3/3 188/3/3
f 190/3/3 172/3/3 189/3/3
f 191/3/3 172/3/3 190/3/3
f 192/4/3 173/4/3 172/4/3
f 192/3/3 172/3/3 191/3/3
f 193/3/3 182/3/3 173/3/3
f 193/4/3 173/4/3 192/4/3
f 194/4/3 177/4/3 176/4/3
f 194/3/3 176/3/3 183/3/3
f 195/3/3 184/3/3 177/3/3
f 195/4/3 177/4/3 194/4/3
f 195/3/3 185/3/3 184/3/3
f 196/3/3 185/3/3 195/3/3
f 197/3/3 186/3/3 162/3/3
f 197/4/3 187/4/3 186/4/3
f 198/3/3 188/3/3 187/3/3
f 198/4/3 187/4/3 197/4/3
f 199/4/3 189/4/3 188/4/3
f 199/3/3 188/3/3 198/3/3
f 200/3/3 190/3/3 189/3/3
f 200/4/3 189/4/3 199/4/3
f 201/4/3 191/4/3 190/4/3
f 201/3/3 190/3/3 200/3/3
f 202/3/3 193/3/3 192/3/3
f 202/4/3 191/4/3 201/4/3
f 202/3/3 192/3/3 191/3/3
f 203/3/3 193/3/3 202/3/3
f 204/3/3 193/3/3 203/3/3
f 205/3/3 182/3/3 193/3/3
f 205/3/3 193/3/3 204/3/3
f 205/4/3 183/4/3 182/4/3
f 206/3/3 194/3/3 183/3/3
f 206/4/3 183/4/3 205/4/3
f 206/3/3 195/3/3 194/3/3
f 207/4/3 196/4/3 195/4/3
f 207/3/3 195/3/3 206/3/3
f 208/3/3 185/3/3 196/3/3
f 208/4/3 196/4/3 207/4/3
f 209/3/3 185/3/3 208/3/3
f 210/6/3 110/6/3 147/6/3
f 210/3/3 185/3/3 209/3/3
f 210/3/3 147/3/3 185/3/3
f 211/6/3 162/6/3 109/6/3
f 211/3/3 201/3/3 200/3/3
f 211/3/3 203/3/3 202/3/3
f 211/3/3 198/3/3 197/3/3
f 211/3/3 197/3/3 162/3/3
f 211/3/3 200/3/3 199/3/3
f 211/3/3 202/3/3 201/3/3
f 211/3/3 199/3/3 198/3/3
f 212/3/3 203/3/3 211/3/3
f 213/3/3 203/3/3 212/3/3
f 214/3/3 203/3/3 213/3/3
f 215/4/3 204/4/3 203/4/3
f 215/3/3 203/3/3 214/3/3
f 216/3/3 209/3/3 208/3/3
f 216/4/3 204/4/3 215/4/3
f 216/3/3 205/3/3 204/3/3
f 216/3/3 206/3/3 205/3/3
f 216/3/3 207/3/3 206/3/3
f 216/3/3 208/3/3 207/3/3
f 217/3/3 209/3/3 216/3/3
f 218/3/3 209/3/3 217/3/3
f 219/3/3 209/3/3 218/3/3
f 220/3/3 209/3/3 219/3/3
f 221/3/3 209/3/3 220/3/3
f 222/3/3 209/3/3 221/3/3
f 223/3/3 213/3/3 212/3/3
f 224/3/3 213/3/3 223/3/3
f 225/4/3 214/4/3 213/4/3
f 225/3/3 213/3/3 224/3/3
f 226/3/3 215/3/3 214/3/3
f 226/4/3 214/4/3 225/4/3
f 226/3/3 216/3/3 215/3/3
f 226/3/3 217/3/3 216/3/3
f 227/4/3 218/4/3 217/4/3
f 227/3/3 217/3/3 226/3/3
f 228/3/3 219/3/3 218/3/3
f 228/4/3 218/4/3 227/4/3
f 229/4/3 222/4/3 221/4/3
f 229/3/3 221/3/3 220/3/3
f 230/3/3 209/3/3 222/3/3
f 230/4/3 222/4/3 229/4/3
f 231/4/3 210/4/3 209/4/3
f 231/3/3 209/3/3 230/3/3
f 232/6/3 110/6/3 210/6/3
f 232/4/3 210/4/3 231/4/3
f 233/4/3 212/4/3 211/4/3
f 233/6/3 211/6/3 109/6/3
f 234/3/3 223/3/3 212/3/3
f 234/4/3 212/4/3 233/4/3
f 235/4/3 224/4/3 223/4/3
f 235/3/3 223/3/3 234/3/3
f 236/3/3 225/3/3 224/3/3
f 236/4/3 224/4/3 235/4/3
f 236/3/3 226/3/3 225/3/3
f 236/3/3 228/3/3 227/3/3
f 236/3/3 227/3/3 226/3/3
f 237/3/3 219/3/3 228/3/3
f 237/3/3 228/3/3 236/3/3
f 237/4/3 220/4/3 219/4/3
f 238/3/3 231/3/3 230/3/3
f 238/4/3 220/4/3 237/4/3
f 238/3/3 229/3/3 220/3/3
f 238/3/3 230/3/3 229/3/3
f 238/3/3 232/3/3 231/3/3
f 239/6/3 110/6/3 232/6/3
f 239/3/3 232/3/3 238/3/3
f 240/6/3 237/6/3 236/6/3
f 240/6/3 234/6/3 233/6/3
f 240/6/3 239/6/3 238/6/3
f 240/6/3 238/6/3 237/6/3
f 240/6/3 233/6/3 109/6/3
f 240/6/3 236/6/3 235/6/3
f 240/6/3 235/6/3 234/6/3
f 241/6/3 110/6/3 239/6/3
f 241/6/3 239/6/3 240/6/3
f 244/1/3 243/1/3 242/1/3
f 245/1/3 243/1/3 244/1/3
f 246/3/4 247/3/4 248/3/4
f 248/3/4 247/3/4 249/3/4
f 250/4/4 251/4/4 256/4/4
f 251/2/4 252/2/4 257/2/4
f 256/4/4 251/4/4 257/4/4
f 252/4/4 253/4/4 258/4/4
f 257/2/4 252/2/4 258/2/4
f 253/2/4 254/2/4 259/2/4
f 258/4/4 253/4/4 259/4/4
f 254/4/4 255/4/4 260/4/4
f 259/2/4 254/2/4 260/2/4
f 260/4/4 255/4/4 261/4/4
f 258/7/4 259/7/4 262/7/4
f 256/7/4 257/7/4 262/7/4
f 260/7/4 261/7/4 262/7/4
f 259/7/4 260/7/4 262/7/4
f 257/7/4 258/7/4 262/7/4
f 262/7/4 261/7/4 263/7/4
f 250/4/4 256/4/4 268/4/4
f 256/7/4 262/7/4 269/7/4
f 268/4/4 256/4/4 269/4/4
f 269/7/4 262/7/4 270/7/4
f 270/7/4 262/7/4 271/7/4
f 271/7/4 262/7/4 272/7/4
f 272/7/4 262/7/4 273/7/4
f 261/4/4 255/4/4 274/4/4
f 263/7/4 261/7/4 274/7/4
f 274/4/4 255/4/4 275/4/4
f 276/7/4 277/7/4 278/7/4
f 278/7/4 277/7/4 279/7/4
f 263/7/4 274/7/4 282/7/4
f 274/2/4 275/2/4 282/2/4
f 282/2/4 275/2/4 283/2/4
f 268/2/4 269/2/4 284/2/4
f 269/7/4 270/7/4 285/7/4
f 284/2/4 269/2/4 285/2/4
f 285/7/4 270/7/4 286/7/4
f 280/7/4 281/7/4 287/7/4
f 264/4/4 265/4/4 288/4/4
f 288/4/4 265/4/4 289/4/4
f 266/5/4 267/5/4 290/5/4
f 290/5/4 267/5/4 291/5/4
f 286/7/4 287/7/4 292/7/4
f 285/7/4 286/7/4 292/7/4
f 287/7/4 281/7/4 292/7/4
f 263/7/4 282/7/4 293/7/4
f 285/7/4 292/7/4 294/7/4
f 292/7/4 293/7/4 294/7/4
f 284/4/4 285/4/4 294/4/4
f 294/7/4 293/7/4 295/7/4
f 295/7/4 293/7/4 296/7/4
f 296/7/4 293/7/4 297/7/4
f 293/7/4 282/7/4 298/7/4
f 297/7/4 293/7/4 298/7/4
f 282/4/4 283/4/4 299/4/4
f 298/7/4 282/7/4 299/7/4
f 284/4/4 294/4/4 300/4/4
f 294/4/4 295/4/4 300/4/4
f 295/2/4 296/2/4 301/2/4
f 300/4/4 295/4/4 301/4/4
f 296/4/4 297/4/4 302/4/4
f 301/2/4 296/2/4 302/2/4
f 297/2/4 298/2/4 303/2/4
f 302/4/4 297/4/4 303/4/4
f 298/4/4 299/4/4 304/4/4
f 303/2/4 298/2/4 304/2/4
f 299/4/4 283/4/4 305/4/4
f 304/4/4 299/4/4 305/4/4
f 306/6/4 307/6/4 308/6/4
f 308/6/4 307/6/4 309/6/4
f 309/6/4 307/6/4 310/6/4
f 310/6/4 307/6/4 311/6/4
f 312/6/4 313/6/4 314/6/4
f 306/6/4 308/6/4 315/6/4
f 312/6/4 314/6/4 316/6/4
f 314/6/4 315/6/4 316/6/4
f 315/6/4 308/6/4 317/6/4
f 316/6/4 315/6/4 317/6/4
f 312/6/4 316/6/4 318/6/4
f 317/6/4 308/6/4 319/6/4
f 312/6/4 318/6/4 320/6/4
f 318/6/4 319/6/4 320/6/4
f 319/6/4 308/6/4 321/6/4
f 320/6/4 319/6/4 321/6/4
f 312/6/4 320/6/4 322/6/4
f 322/6/4 320/6/4 323/6/4
f 321/6/4 308/6/4 324/6/4
f 309/6/4 310/6/4 325/6/4
f 325/6/4 310/6/4 326/6/4
f 311/6/4 307/6/4 327/6/4
f 325/6/4 326/6/4 328/6/4
f 326/6/4 327/6/4 328/6/4
f 321/6/4 324/6/4 328/6/4
f 324/6/4 325/6/4 328/6/4
f 327/6/4 307/6/4 329/6/4
f 328/6/4 327/6/4 329/6/4
f 332/6/5 331/6/5 330/6/5
f 333/6/5 331/6/5 332/6/5
f 334/6/5 331/6/5 333/6/5
f 335/6/5 331/6/5 334/6/5
f 336/4/5 333/4/5 332/4/5
f 337/2/5 334/2/5 333/2/5
f 337/4/5 333/4/5 336/4/5
f 338/4/5 335/4/5 334/4/5
f 338/2/5 334/2/5 337/2/5
f 339/4/5 335/4/5 338/4/5
f 342/1/5 341/1/5 340/1/5
f 343/1/5 341/1/5 342/1/5
f 344/6/5 343/6/5 342/6/5
f 345/6/5 343/6/5 344/6/5
f 352/1/5 347/1/5 346/1/5
f 353/1/5 347/1/5 352/1/5
f 354/1/5 349/1/5 348/1/5
f 355/1/5 349/1/5 354/1/5
f 356/1/5 351/1/5 350/1/5
f 357/1/5 351/1/5 356/1/5
f 358/6/5 353/6/5 352/6/5
f 359/6/5 353/6/5 358/6/5
f 360/6/5 355/6/5 354/6/5
f 361/6/5 355/6/5 360/6/5
f 362/6/5 357/6/5 356/6/5
f 363/6/5 357/6/5 362/6/5
f 366/1/5 365/1/5 364/1/5
f 367/1/5 365/1/5 366/1/5
f 368/6/5 367/6/5 366/6/5
f 369/6/5 367/6/5 368/6/5
f 372/5/5 371/5/5 370/5/5
f 373/5/5 371/5/5 372/5/5
f 376/1/5 375/1/5 374/1/5
f 377/1/5 375/1/5 376/1/5
f 378/6/5 377/6/5 376/6/5
f 379/6/5 377/6/5 378/6/5
f 380/1/6 381/1/6 386/1/6
f 386/1/6 381/1/6 387/1/6
f 382/1/6 383/1/6 388/1/6
f 388/1/6 383/1/6 389/1/6
f 384/1/6 385/1/6 390/1/6
f 390/1/6 385/1/6 391/1/6
f 386/6/6 387/6/6 392/6/6
f 392/6/6 387/6/6 393/6/6
f 388/6/6 389/6/6 394/6/6
f 394/6/6 389/6/6 395/6/6
f 390/6/6 391/6/6 396/6/6
f 396/6/6 391/6/6 397/6/6
f 398/1/6 399/1/6 400/1/6
f 400/1/6 399/1/6 401/1/6
f 400/6/6 401/6/6 402/6/6
f 402/6/6 401/6/6 403/6/6
f 404/4/6 405/4/6 406/4/6
f 406/4/6 405/4/6 407/4/6
f 408/1/6 409/1/6 410/1/6
f 410/1/6 409/1/6 411/1/6
f 410/6/6 411/6/6 412/6/6
f 412/6/6 411/6/6 413/6/6
f 414/1/6 415/1/6 416/1/6
f 416/1/6 415/1/6 417/1/6
f 416/6/6 417/6/6 418/6/6
f 418/6/6 417/6/6 419/6/6
f 420/6/6 421/6/6 422/6/6
f 422/6/6 421/6/6 423/6/6
f 423/6/6 421/6/6 424/6/6
f 424/6/6 421/6/6 425/6/6
f 422/4/6 423/4/6 426/4/6
f 423/2/6 424/2/6 427/2/6
f 426/4/6 423/4/6 427/4/6
f 424/4/6 425/4/6 428/4/6
f 427/2/6 424/2/6 428/2/6
f 428/4/6 425/4/6 429/4/6
